<svg xmlns="http://www.w3.org/2000/svg" xmlns:xlink="http://www.w3.org/1999/xlink"><symbol id="sprite-separator-light-left" viewBox="0 0 62 128"><title>separator-light-left</title><path fill="#bfbfbf" d="M49.8 61L40 57.5s-23.5 4.4-36 4.4a2.1 2.1 0 100 4.2c12.6 0 36.2 4.4 36.2 4.4l9.6-3.5c2.8 4.1 9.5 4.1 12.3 0v-6c-2.8-4.1-9.5-4.1-12.3 0z"/></symbol><use xlink:href="#sprite-separator-light-left" width="62" height="128"/><view id="sprite-separator-light-left-fragment" viewBox="0 0 62 128"/><symbol id="sprite-separator-light-middle" viewBox="0 0 264 128"><title>separator-light-middle</title><path fill="#bfbfbf" d="M217 55.4a60.8 60.8 0 00-15.9-3.5 13 13 0 001.3-4.5c.3-3.4-2.1-9.6-6.4-12.2-7-4.1-14.2-.6-16.3 5-1.5 4.4-.4 9.5 4.4 11 2.4.8 6.3-1.4 6.9-4.3-1.4 8.5-7 5.3-8.8 8.2-3-2.6-6.1-5.2-10.2-4.2-3.9.8-6.8 3.4-7.1 8-.5 6 3.7 7.2 6.7 6.8 3.4-.4 5.4-3.8 3.6-5.7 5.7 6.1-4 17.9-24.7 13.8.7-1.7 1-3.5.2-4.5-1-1.4 4.3-1.4 5.2-5.2 1.2-5.3 2.8-8.2 0-10.9l.6-.4c1.6-1-.6-3.5-.6-3.5s6.4-7.2 7.7-13.2c.7-4 1.4-14.8-8-15-4.4 0-8.1 0-11.7-2.6-4.4-3.2-3.5-6.8-3.5-6.8s-2.9 2.9-1.4 6.5 4.6 7.7 10.2 8.2c7.7.8 7 3.3 4.7 8.7-2.1 5-8.6 10.1-8.6 10.1s-2-1.7-2.7-.6a26.6 26.6 0 01-1.7 2.2 24.4 24.4 0 00-9-.1 24.2 24.2 0 00-8.9 0 26.6 26.6 0 01-1.7-2c-.8-1.2-2.6.5-2.6.5s-6.5-5.1-8.6-10.1c-2.3-5.4-3-7.9 4.6-8.7 5.6-.5 8.8-4.6 10.2-8.2s-1.4-6.5-1.4-6.5 1 3.6-3.5 6.8c-3.6 2.6-7.2 2.5-11.7 2.6-9.3.2-8.6 11-7.9 15 1.2 6 7.6 13.2 7.6 13.2s-2.1 2.5-.6 3.5l.6.4c-2.7 2.7-1.2 5.5 0 10.9 1 3.8 6.3 3.8 5.3 5.2-.8 1-.5 2.8.2 4.6-20.7 4-30.4-7.8-24.7-13.9-1.8 1.9.2 5.4 3.6 5.8 3 .3 7.2-.9 6.7-6.9-.3-4.5-3.2-7.1-7.1-8-4.1-1-7.2 1.6-10.2 4.3-1.8-3-7.4.2-8.8-8.2.6 2.8 4.4 5 6.9 4.3 4.8-1.5 6-6.7 4.4-11-2-5.7-9.3-9.2-16.3-5a14.7 14.7 0 00-6.4 12.1A13 13 0 0063 52a60.8 60.8 0 00-16 3.5C31 61 15.7 63.3 1.4 48.8c16.9 24.8 36 18.4 44.1 16.5 11.5-2.5 18-1.7 22.6.5a2.4 2.4 0 002.4 1.3c6.4 4.2 9.4 11 21.5 12 11.4 2.7 22.4.3 25.3 5-1.7 2.8 1.9 3.6 3.7 5 3.9.4 4.8-3.8 4.8-3.8a3.7 3.7 0 01-.5-1.4l1.2 2a1.2 1.2 0 01-.2-.1 8.8 8.8 0 01-2.3 3c-1 .7-1.7.6-2.8.7-.4 0-.6.2-.5.6 1.4 3.8 1.3 6 6 5 2.2-1.6 2.4-4.7 2.2-6.6a7.6 7.6 0 010-1h.5l.1 2.4a6.8 6.8 0 01-2.2 5.3c-.6 2.4 1.2 3.6 3 4.6a10 10 0 011.7 5 10 10 0 011.8-5c1.7-1 3.5-2.2 3-4.6a6.7 6.7 0 01-2.3-5.3v-2.4h.6a7.6 7.6 0 010 1c-.2 1.9 0 5 2.2 6.6 4.7 1 4.6-1.2 6-5 0-.4-.2-.5-.6-.6-1.1-.1-1.8 0-2.7-.7a8.7 8.7 0 01-2.3-3 1.2 1.2 0 01-.3.2l1.3-2.4a3.7 3.7 0 01-.5 1.7s1 4.2 4.9 3.8c1.7-1.4 5.3-2.2 3.7-5 2.9-4.7 14-2.3 25.5-5 11.8-1.2 14.8-7.8 21.2-12 1.1 0 2.1-.4 2.4-1.4 4.6-2.2 11.1-3 22.6-.4 8.2 1.8 27.2 8.2 44.1-16.5-14.3 14.5-29.5 12.2-45.5 6.6zm-97.4 27.7a7.7 7.7 0 014.5-1.6l.4.7a23.2 23.2 0 01-5 .9zm-1-15c-2-1.6-2.7-3.4-1.2-3.2 1.9.2 9.3 2.3 10.5 4 1 1.8-7.9.4-9.3-.8zm13.4 14c0-1.8-4.3-7.2-3-7.5s1.5 1.9 3 .5c1.4 1.4 1.6-.8 2.9-.5s-3 5.7-3 7.6zm7.4 0l.4-.7a7.6 7.6 0 014.6 1.7 23.1 23.1 0 01-5-1zm6-14c-1.5 1.2-10.4 2.6-9.3.9 1.1-1.8 8.6-4 10.5-4.1 1.5-.2.8 1.6-1.2 3.2zm-86.7 1a6 6 0 106 6 6 6 0 00-6-6zM17.4 71a4.2 4.2 0 104 4.2 4.1 4.1 0 00-4-4.2zm19.8-.6a4.7 4.7 0 104.6 4.8 4.7 4.7 0 00-4.6-4.8zm168-1.4a6 6 0 106 6.1 6 6 0 00-6-6zm41.4 1.9a4.2 4.2 0 104 4.2 4.1 4.1 0 00-4-4.2zm-19.8-.5a4.7 4.7 0 104.6 4.7 4.7 4.7 0 00-4.6-4.7z"/></symbol><use xlink:href="#sprite-separator-light-middle" y="128" width="264" height="128"/><view id="sprite-separator-light-middle-fragment" viewBox="0 128 264 128"/><symbol id="sprite-separator-light-right" viewBox="0 0 62 128"><title>separator-light-right</title><path fill="#bfbfbf" d="M12.3 61l9.6-3.5s23.6 4.4 36.3 4.4a2.1 2.1 0 110 4.2c-12.7 0-36.3 4.4-36.3 4.4L12.3 67C9.5 71.1 2.8 71.1 0 67v-6c2.8-4.1 9.5-4.1 12.3 0z"/></symbol><use xlink:href="#sprite-separator-light-right" y="256" width="62" height="128"/><view id="sprite-separator-light-right-fragment" viewBox="0 256 62 128"/><symbol id="sprite-separator-light-wheel-l" viewBox="0 0 48 48"><title>separator-light-wheel-l</title><path fill="#bfbfbf" d="M42 23.5l6-2a24.1 24.1 0 00-.4-2.6h-6.4l-.3-1 5.2-3.7a24.2 24.2 0 00-1.2-2.3l-6.1 2-.6-.9 3.7-5a24.4 24.4 0 00-1.8-2l-5.2 3.8a18 18 0 00-.8-.6l2-6a24 24 0 00-2.3-1.3L30 7.1l-1-.3V.4a24 24 0 00-2.5-.4l-2 6h-1l-2-6a24 24 0 00-2.6.4v6.4L18 7l-3.7-5A23.9 23.9 0 0012 3.1l2 6-.9.7L8 6a24 24 0 00-2 2l3.8 5-.6.9-6-2a23.7 23.7 0 00-1.3 2.3L7.1 18l-.3 1H.4a23.9 23.9 0 00-.4 2.5l6 2v1l-6 2A23.9 23.9 0 00.4 29h6.4l.3 1-5.2 3.7A23.8 23.8 0 003.1 36l6-2 .7.9L6 40a24.2 24.2 0 002 2l5.1-3.8.9.6-2 6a23.8 23.8 0 002.3 1.3l3.8-5.2 1 .3v6.4a24.2 24.2 0 002.5.4l2-6h1l2 6a24.2 24.2 0 002.6-.4v-6.4l1-.3 3.7 5.2a24 24 0 002.3-1.2l-2-6.1.8-.6 5.2 3.8a24 24 0 001.9-2l-3.8-5 .6-.9 6 2a24.2 24.2 0 001.3-2.3L40.9 30l.3-1h6.4a24.1 24.1 0 00.4-2.5l-6-2v-1zm-3.7.5a14.3 14.3 0 01-.5 3.5 6 6 0 00-7-3V24a6.7 6.7 0 00-.2-1.2 4 4 0 017.6-.4 14.4 14.4 0 010 1.6zm-3.8-6a6 6 0 00-4.8 2.4 6.7 6.7 0 00-1-1.3 4 4 0 01-.2-.5v-.1a4 4 0 010-.6 4.2 4.2 0 010-.6 4.2 4.2 0 01.1-.6v-.1a4 4 0 01.2-.5V16a4 4 0 01.3-.5h.1a4 4 0 01.4-.5 4.4 4.4 0 01.5-.4 4 4 0 014.4-.3 14.3 14.3 0 012.8 4.4 6 6 0 00-2.8-.7zm-2.9-6a6 6 0 00-2.6 1 6.2 6.2 0 00-.6.4l-.1.2a5.7 5.7 0 00-.7.8l-.1.2-.3.5a6 6 0 00-.7 2.6 6.8 6.8 0 00-1.6-.4 4 4 0 012-7.3 14.2 14.2 0 014.7 2zm-4.4 12a3.2 3.2 0 11-3.2-3.2 3.2 3.2 0 013.2 3.2zM23 9.8a6 6 0 00-.7 7.7 6.8 6.8 0 00-1.5.6A4 4 0 0118 11a14.2 14.2 0 015-1.3zM13 33.2a14.3 14.3 0 01-2.3-4 6 6 0 007.6-1.6 6.8 6.8 0 001 1.3 3.9 3.9 0 01-1 4.2 4.1 4.1 0 01-5.2.1zM9.8 24a14.3 14.3 0 01.4-3.5 6 6 0 007.2 3v.5a6.8 6.8 0 000 1.2 4 4 0 01-7.5.4 14.6 14.6 0 01-.1-1.6zM15 13a6 6 0 004 6.7 6.8 6.8 0 00-1 1.4 4 4 0 01-6.3-4.1 14.3 14.3 0 013.3-4zm1.5 23a6 6 0 002.6-1 6.2 6.2 0 00.5-.4l.2-.2.3-.3.1-.2.3-.3.1-.2.3-.5a6 6 0 00.7-2.6 6.7 6.7 0 001.6.4 4 4 0 01-2 7.3 14.2 14.2 0 01-4.7-2zm8.5 2.2a6 6 0 00.7-7.7 6.7 6.7 0 001.6-.6A4 4 0 0130 37a14.2 14.2 0 01-5 1.2zm8.2-3.2a6 6 0 00-4-6.7 6.7 6.7 0 001-1.4 4 4 0 016.3 4.1 14.3 14.3 0 01-3.3 4z"/></symbol><use xlink:href="#sprite-separator-light-wheel-l" y="384" width="48" height="48"/><view id="sprite-separator-light-wheel-l-fragment" viewBox="0 384 48 48"/><symbol id="sprite-separator-light-wheel-m" viewBox="0 0 32 32"><title>separator-light-wheel-m</title><path fill="#bfbfbf" d="M32 17.5v-3l-2.6-.1a13.4 13.4 0 00-.4-2l2.3-1.1a16 16 0 00-1.1-2.7l-2.5.8a13.6 13.6 0 00-1-1.7l1.6-2a16.1 16.1 0 00-2-2l-2 1.7a13.5 13.5 0 00-1.7-1.1l.8-2.5a16 16 0 00-2.7-1L19.6 3a13.5 13.5 0 00-2-.4V.1a16.1 16.1 0 00-3 0l-.2 2.5a13.4 13.4 0 00-1.9.4L11.3.7A16 16 0 008.6 2l.8 2.4a13.4 13.4 0 00-1.7 1l-2-1.6a16.1 16.1 0 00-2 2l1.7 2a13.6 13.6 0 00-1.1 1.7l-2.5-.8a16 16 0 00-1 2.7l2.2 1a13.4 13.4 0 00-.4 2l-2.5.1L0 16v1.5l2.6.2a13.4 13.4 0 00.4 1.9L.7 20.8a16 16 0 001.1 2.7l2.5-.8a13.6 13.6 0 001 1.6l-1.6 2a16 16 0 002 2l2-1.7a13.5 13.5 0 001.7 1.1l-.9 2.5a16 16 0 002.7 1.1l1.2-2.3a13.3 13.3 0 002 .4l.1 2.5a16 16 0 003 0l.1-2.5a13.3 13.3 0 002-.4l1.1 2.3a16 16 0 002.7-1.1l-.8-2.5a13.4 13.4 0 001.7-1l2 1.6a16.1 16.1 0 002-2l-1.7-2a13.4 13.4 0 001.1-1.6l2.5.8a16 16 0 001-2.7L29 19.6a13.4 13.4 0 00.4-2zM17 5.9a.7.7 0 01.9-.7 14.5 14.5 0 013.6 1.3 14.5 14.5 0 012.9 2.4.7.7 0 01-.2 1.1l-1.5.9a1.2 1.2 0 01-1.4-.2 6.9 6.9 0 00-3.4-2 1.2 1.2 0 01-.8-1V5.8zm-9.5 3A10.2 10.2 0 0114 5.2a.7.7 0 01.8.7v1.7a1.2 1.2 0 01-.8 1.1 6.9 6.9 0 00-3.5 2 1.2 1.2 0 01-1.3.2L7.7 10a.7.7 0 01-.2-1zm-2 10.9a14.5 14.5 0 01-.7-3.7 14.5 14.5 0 01.7-3.8.7.7 0 011-.3l1.6.8a1.2 1.2 0 01.5 1.3 6.9 6.9 0 000 4 1.2 1.2 0 01-.5 1.2l-1.5.9a.7.7 0 01-1-.4zm9.3 6.4a.7.7 0 01-.8.7 14.5 14.5 0 01-3.6-1.2 14.5 14.5 0 01-2.9-2.5.7.7 0 01.2-1l1.5-1a1.2 1.2 0 011.3.2 6.9 6.9 0 003.5 2 1.2 1.2 0 01.8 1.1v1.7zm1.1-6.1a4 4 0 114-4 4 4 0 01-4 4zm8.5 3.1a14.5 14.5 0 01-3 2.5 14.5 14.5 0 01-3.5 1.2.7.7 0 01-.8-.7v-1.7a1.2 1.2 0 01.8-1 6.9 6.9 0 003.4-2 1.2 1.2 0 011.4-.2l1.5.8a.7.7 0 01.2 1.1zm2-3.4a.7.7 0 01-1 .4l-1.6-.9a1.2 1.2 0 01-.5-1.2 7 7 0 000-4 1.2 1.2 0 01.5-1.3l1.5-.9a.7.7 0 011 .4 14.5 14.5 0 01.7 3.8 14.5 14.5 0 01-.7 3.7z"/></symbol><use xlink:href="#sprite-separator-light-wheel-m" y="432" width="32" height="32"/><view id="sprite-separator-light-wheel-m-fragment" viewBox="0 432 32 32"/><symbol id="sprite-separator-light-wheel-s" viewBox="0 0 16 16"><title>separator-light-wheel-s</title><path fill="#bfbfbf" d="M16 9V7l-1.7-.2a6.4 6.4 0 00-.3-1l1.4-1-1-1.7-1.5.7a6.5 6.5 0 00-.7-.7l.7-1.5-1.8-1-1 1.4a6.3 6.3 0 00-1-.3V0H7l-.2 1.7a6.3 6.3 0 00-1 .3L4.9.6l-1.7 1L4 3a6.5 6.5 0 00-.8.7L1.7 3 .6 5 2 6a6.3 6.3 0 00-.3 1H0v2l1.7.2a6.3 6.3 0 00.3 1l-1.4 1 1 1.7 1.5-.7a6.5 6.5 0 00.8.7L3 14.4l1.8 1 1-1.4a6.4 6.4 0 001 .3V16H9l.2-1.7a6.3 6.3 0 001-.3l1 1.4 1.7-1-.7-1.5a6.5 6.5 0 00.7-.7l1.5.7 1-1.8-1.4-1a6.4 6.4 0 00.3-1zm-5.5-5L8.9 5.8a2.3 2.3 0 00-1.8 0l-1.6-2a4.8 4.8 0 015 0zM9.1 8a1 1 0 11-1-1 1 1 0 011 1zm-5.2 2.5a4.8 4.8 0 010-5l2 1.6a2.3 2.3 0 000 1.8zm1.6 1.6l1.6-2a2.3 2.3 0 001.8 0l1.6 2a4.8 4.8 0 01-5 0zm6.6-1.6l-2-1.6a2.3 2.3 0 000-1.8l2-1.6a4.8 4.8 0 010 5z"/></symbol><use xlink:href="#sprite-separator-light-wheel-s" y="464" width="16" height="16"/><view id="sprite-separator-light-wheel-s-fragment" viewBox="0 464 16 16"/><symbol id="sprite-separator-light-wheel-xl" viewBox="0 0 64 64"><title>separator-light-wheel-xl</title><path fill="#bfbfbf" d="M58.7 31.3l5.3-.8-.1-2h-5.4l-.2-1.4 5-1.6-.4-2-5.3 1-.4-1.4 4.8-2.5-.8-1.8-5 1.7-.7-1.2 4.3-3.2-1-1.7L54 17l-.8-1.2L57 12l-1.3-1.4-4.3 3.1-1-1 3.1-4.3L52.1 7l-3.8 3.8L47 10l2.5-4.8-1.7-1-3.1 4.3-1.3-.6 1.7-5.1-1.8-.8-2.5 4.8a26 26 0 00-1.3-.4l.8-5.3-1.9-.5L37 5.7l-1.4-.2V.2l-2-.2-.8 5.3h-1.4L30.5 0l-2 .2v5.3l-1.4.2-1.6-5c-.7 0-1.3.2-2 .4l1 5.3-1.4.4L20.7 2l-1.8.8 1.6 5-1.2.7L16 4.2l-1.7 1L17 10l-1.1.8L12 7l-1.5 1.3 3.1 4.3-1 1-4.3-3.1L7 11.9l3.8 3.8L10 17l-4.8-2.5-1 1.7 4.3 3.2-.6 1.2-5.1-1.7-.8 1.8 4.8 2.5-.4 1.3-5.3-.8-.5 1.9L5.8 27l-.3 1.4H.2l-.2 2 5.3.8v1.4l-5.3.8c0 .7 0 1.3.2 2h5.3l.3 1.4-5.2 1.6.5 2 5.3-1 .4 1.4L2 43.4l.8 1.8 5.1-1.7.6 1.2L4.2 48l1 1.7L10 47l.8 1.1L7 52l1.3 1.5 4.3-3.1 1 1-3.1 4.3L12 57l3.8-3.8 1 .8-2.4 4.8 1.7 1 3.2-4.3 1.2.6-1.6 5.1 1.8.8 2.4-4.8 1.3.4-.8 5.3 1.9.5 1.6-5.2 1.4.3v5.3l2 .2.8-5.3h1.4l.8 5.3c.7 0 1.3 0 2-.2v-5.3c.5 0 1-.2 1.4-.3l1.6 5.2 2-.5-1-5.3 1.4-.4 2.5 4.8a31 31 0 001.8-.8l-1.7-5.1 1.3-.6 3.1 4.3 1.7-1L47 54l1.2-.8L52 57l1.4-1.3-3.1-4.3 1-1 4.3 3.1c.5-.4.9-1 1.3-1.5l-3.8-3.8.8-1 4.8 2.4 1-1.7-4.3-3.2.6-1.2 5.1 1.7.8-1.8-4.8-2.5.4-1.3 5.3.8.5-1.9-5.1-1.6.2-1.4h5.4l.1-2-5.3-.8v-1.4zM27.4 9.9a29.8 29.8 0 019.2 0 3.4 3.4 0 012.7 4.5 62.6 62.6 0 01-4.6 9.6c-1.3 2.4-4 2.4-5.4 0a62.4 62.4 0 01-4.6-9.6 3.4 3.4 0 012.7-4.5zM35.1 32a3.1 3.1 0 11-3-3.1 3.1 3.1 0 013 3.1zm-24.5-7.1a30 30 0 014.5-8 3.4 3.4 0 015.3 0 62.7 62.7 0 016 8.8c1.5 2.3 0 4.7-2.7 4.7a62.8 62.8 0 01-10.6-.9 3.4 3.4 0 01-2.5-4.6zm9.8 22.2a3.4 3.4 0 01-5.3 0 29.9 29.9 0 01-4.5-8 3.4 3.4 0 012.5-4.6 62.6 62.6 0 0110.6-.9c2.8 0 4.2 2.4 2.8 4.7a62.6 62.6 0 01-6 8.8zm16.2 7a30 30 0 01-9.2 0 3.4 3.4 0 01-2.7-4.5 62.4 62.4 0 014.6-9.6c1.3-2.4 4-2.4 5.4 0a62.6 62.6 0 014.6 9.6 3.4 3.4 0 01-2.7 4.5zm16.8-15a29.9 29.9 0 01-4.5 8 3.4 3.4 0 01-5.3 0 62.4 62.4 0 01-6-8.8c-1.4-2.3 0-4.7 2.7-4.7a62.6 62.6 0 0110.6.9 3.4 3.4 0 012.6 4.6zM51 29.5a62.8 62.8 0 01-10.6.9c-2.8 0-4.1-2.4-2.8-4.7a62.6 62.6 0 016-8.8 3.4 3.4 0 015.4 0 30 30 0 014.5 8 3.4 3.4 0 01-2.5 4.6z"/></symbol><use xlink:href="#sprite-separator-light-wheel-xl" y="480" width="64" height="64"/><view id="sprite-separator-light-wheel-xl-fragment" viewBox="0 480 64 64"/></svg>