<svg xmlns="http://www.w3.org/2000/svg" viewBox="0 0 32 32">
    <path fill="#bfbfbf"
          d="M32 17.5V16v-1.5l-2.6-.1a13.4 13.4 0 00-.4-2l2.3-1.1a16 16 0 00-1.1-2.7l-2.5.8a13.6 13.6 0 00-1-1.7l1.6-2a16.1 16.1 0 00-2-2l-2 1.7a13.5 13.5 0 00-1.7-1.1l.8-2.5a16 16 0 00-2.7-1L19.6 3a13.5 13.5 0 00-2-.4L17.6.1a16.1 16.1 0 00-3 0l-.2 2.5a13.4 13.4 0 00-1.9.4L11.3.7A16 16 0 008.6 2l.8 2.4a13.4 13.4 0 00-1.7 1l-2-1.6a16.1 16.1 0 00-2 2l1.7 2a13.6 13.6 0 00-1.1 1.7l-2.5-.8a16 16 0 00-1 2.7L3 12.4a13.4 13.4 0 00-.4 2l-2.5.1L0 16v1.5l2.6.2a13.4 13.4 0 00.4 1.9L.7 20.8a16 16 0 001.1 2.7l2.5-.8a13.6 13.6 0 001 1.6l-1.6 2a16 16 0 002 2l2-1.7a13.5 13.5 0 001.7 1.1l-.9 2.5a16 16 0 002.7 1.1l1.2-2.3a13.3 13.3 0 002 .4l.1 2.5a16 16 0 003 0l.1-2.5a13.3 13.3 0 002-.4l1.1 2.3a16 16 0 002.7-1.1l-.8-2.5a13.4 13.4 0 001.7-1l2 1.6a16.1 16.1 0 002-2l-1.7-2a13.4 13.4 0 001.1-1.6l2.5.8a16 16 0 001-2.7L29 19.6a13.4 13.4 0 00.4-2zM17 5.9a.7.7 0 01.9-.7 14.5 14.5 0 013.6 1.3 14.5 14.5 0 012.9 2.4.7.7 0 01-.2 1.1l-1.5.9a1.2 1.2 0 01-1.4-.2 6.9 6.9 0 00-3.4-2 1.2 1.2 0 01-.8-1V5.8zm-9.5 3A10.2 10.2 0 0114 5.2a.7.7 0 01.8.7v1.7a1.2 1.2 0 01-.8 1.1 6.9 6.9 0 00-3.5 2 1.2 1.2 0 01-1.3.2L7.7 10a.7.7 0 01-.2-1zm-2 10.9a14.5 14.5 0 01-.7-3.7 14.5 14.5 0 01.7-3.8.7.7 0 011-.3l1.6.8a1.2 1.2 0 01.5 1.3 6.9 6.9 0 000 4 1.2 1.2 0 01-.5 1.2l-1.5.9a.7.7 0 01-1-.4zm9.3 6.4a.7.7 0 01-.8.7 14.5 14.5 0 01-3.6-1.2 14.5 14.5 0 01-2.9-2.5.7.7 0 01.2-1l1.5-1a1.2 1.2 0 011.3.2 6.9 6.9 0 003.5 2 1.2 1.2 0 01.8 1.1v1.7zm1.1-6.1a4 4 0 114-4 4 4 0 01-4 4zm8.5 3.1a14.5 14.5 0 01-3 2.5 14.5 14.5 0 01-3.5 1.2.7.7 0 01-.8-.7v-1.7a1.2 1.2 0 01.8-1 6.9 6.9 0 003.4-2 1.2 1.2 0 011.4-.2l1.5.8a.7.7 0 01.2 1.1zm2-3.4a.7.7 0 01-1 .4l-1.6-.9a1.2 1.2 0 01-.5-1.2 7 7 0 000-4 1.2 1.2 0 01.5-1.3l1.5-.9a.7.7 0 011 .4 14.5 14.5 0 01.7 3.8 14.5 14.5 0 01-.7 3.7z"/>
</svg>