<svg xmlns="http://www.w3.org/2000/svg" viewBox="0 0 48 48">
    <path fill="#bfbfbf"
          d="M42 23.5l6-2a24.1 24.1 0 00-.4-2.6h-6.4l-.3-1 5.2-3.7a24.2 24.2 0 00-1.2-2.3l-6.1 2-.6-.9L41.9 8A24.4 24.4 0 0040.1 6l-5.2 3.8a18 18 0 00-.8-.6l2-6a24 24 0 00-2.3-1.3L30 7.1l-1-.3V.4a24 24 0 00-2.5-.4l-2 6h-1l-2-6a24 24 0 00-2.6.4v6.4L18 7 14.3 2A23.9 23.9 0 0012 3.1l2 6-.9.7L8 6A24 24 0 006 8L9.8 13l-.6.9-6-2a23.7 23.7 0 00-1.3 2.3L7.1 18l-.3 1H.4a23.9 23.9 0 00-.4 2.5l6 2v1l-6 2A23.9 23.9 0 00.4 29h6.4l.3 1-5.2 3.7A23.8 23.8 0 003.1 36l6-2 .7.9L6 40A24.2 24.2 0 008 42l5.1-3.8.9.6-2 6a23.8 23.8 0 002.3 1.3l3.8-5.2 1 .3v6.4a24.2 24.2 0 002.5.4l2-6h1l2 6a24.2 24.2 0 002.6-.4v-6.4l1-.3 3.7 5.2a24 24 0 002.3-1.2l-2-6.1.8-.6 5.2 3.8a24 24 0 001.9-2l-3.8-5 .6-.9 6 2a24.2 24.2 0 001.3-2.3L40.9 30l.3-1h6.4a24.1 24.1 0 00.4-2.5l-6-2v-1zm-3.7.5a14.3 14.3 0 01-.5 3.5 6 6 0 00-7-3V24a6.7 6.7 0 00-.2-1.2 4 4 0 017.6-.4 14.4 14.4 0 010 1.6zm-3.8-6a6 6 0 00-4.8 2.4 6.7 6.7 0 00-1-1.3 4 4 0 01-.2-.5v-.1a4 4 0 010-.6 4.2 4.2 0 010-.6 4.2 4.2 0 01.1-.6v-.1a4 4 0 01.2-.5V16a4 4 0 01.3-.5h.1a4 4 0 01.4-.5 4.4 4.4 0 01.5-.4 4 4 0 014.4-.3 14.3 14.3 0 012.8 4.4 6 6 0 00-2.8-.7zm-2.9-6a6 6 0 00-2.6 1 6.2 6.2 0 00-.6.4l-.1.2a5.7 5.7 0 00-.7.8l-.1.2-.3.5a6 6 0 00-.7 2.6 6.8 6.8 0 00-1.6-.4 4 4 0 012-7.3 14.2 14.2 0 014.7 2zm-4.4 12a3.2 3.2 0 11-3.2-3.2 3.2 3.2 0 013.2 3.2zM23 9.8a6 6 0 00-.7 7.7 6.8 6.8 0 00-1.5.6A4 4 0 0118 11a14.2 14.2 0 015-1.3zM13 33.2a14.3 14.3 0 01-2.3-4 6 6 0 007.6-1.6 6.8 6.8 0 001 1.3 3.9 3.9 0 01-1 4.2 4.1 4.1 0 01-5.2.1zM9.8 24a14.3 14.3 0 01.4-3.5 6 6 0 007.2 3v.5a6.8 6.8 0 000 1.2 4 4 0 01-7.5.4 14.6 14.6 0 01-.1-1.6zm5.2-11a6 6 0 004 6.7 6.8 6.8 0 00-1 1.4 4 4 0 01-6.3-4.1 14.3 14.3 0 013.3-4zm1.5 23a6 6 0 002.6-1 6.2 6.2 0 00.5-.4l.2-.2.3-.3.1-.2.3-.3.1-.2.3-.5a6 6 0 00.7-2.6 6.7 6.7 0 001.6.4 4 4 0 01-2 7.3 14.2 14.2 0 01-4.7-2zm8.5 2.2a6 6 0 00.7-7.7 6.7 6.7 0 001.6-.6 4 4 0 012.7 7.1 14.2 14.2 0 01-5 1.2zm8.2-3.2a6 6 0 00-4-6.7 6.7 6.7 0 001-1.4 4 4 0 016.3 4.1 14.3 14.3 0 01-3.3 4z"/>
</svg>