<svg xmlns="http://www.w3.org/2000/svg" viewBox="0 0 16 16">
    <path fill="#bfbfbf"
          d="M16 9V7l-1.7-.2a6.4 6.4 0 00-.3-1l1.4-1-1-1.7-1.5.7a6.5 6.5 0 00-.7-.7l.7-1.5-1.8-1-1 1.4a6.3 6.3 0 00-1-.3V0H7l-.2 1.7a6.3 6.3 0 00-1 .3L4.9.6l-1.7 1L4 3a6.5 6.5 0 00-.8.7l-1.5-.7L.6 5l1.4 1a6.3 6.3 0 00-.3 1H0V9l1.7.2a6.3 6.3 0 00.3 1l-1.4 1 1 1.7 1.5-.7a6.5 6.5 0 00.8.7L3 14.4l1.8 1 1-1.4a6.4 6.4 0 001 .3V16H9l.2-1.7a6.3 6.3 0 001-.3l1 1.4 1.7-1-.7-1.5a6.5 6.5 0 00.7-.7l1.5.7 1-1.8-1.4-1a6.4 6.4 0 00.3-1zm-5.5-5L8.9 5.8a2.3 2.3 0 00-1.8 0l-1.6-2a4.8 4.8 0 015 0zM9.1 8a1 1 0 11-1-1 1 1 0 011 1zm-5.2 2.5a4.8 4.8 0 010-5l2 1.6a2.3 2.3 0 000 1.8zm1.6 1.6l1.6-2a2.3 2.3 0 001.8 0l1.6 2a4.8 4.8 0 01-5 0zm6.6-1.6l-2-1.6a2.3 2.3 0 000-1.8l2-1.6a4.8 4.8 0 010 5z"/>
</svg>