<svg xmlns="http://www.w3.org/2000/svg" viewBox="0 0 64 64">
    <path fill="#bfbfbf"
          d="M58.7 31.3l5.3-.8-.1-2h-5.4l-.2-1.4 5-1.6-.4-2-5.3 1-.4-1.4 4.8-2.5-.8-1.8-5 1.7-.7-1.2 4.3-3.2-1-1.7L54 17l-.8-1.2L57 12l-1.3-1.4-4.3 3.1-1-1 3.1-4.3L52.1 7l-3.8 3.8L47 10l2.5-4.8-1.7-1-3.1 4.3-1.3-.6 1.7-5.1-1.8-.8-2.5 4.8a26 26 0 00-1.3-.4l.8-5.3-1.9-.5L37 5.7l-1.4-.2V.2l-2-.2-.8 5.3h-1.4L30.5 0l-2 .2v5.3l-1.4.2-1.6-5c-.7 0-1.3.2-2 .4l1 5.3-1.4.4L20.7 2l-1.8.8 1.6 5-1.2.7L16 4.2l-1.7 1L17 10l-1.1.8L12 7l-1.5 1.3 3.1 4.3-1 1-4.3-3.1L7 11.9l3.8 3.8L10 17l-4.8-2.5-1 1.7 4.3 3.2-.6 1.2-5.1-1.7-.8 1.8 4.8 2.5-.4 1.3-5.3-.8-.5 1.9L5.8 27l-.3 1.4H.2l-.2 2 5.3.8v1.4l-5.3.8c0 .7 0 1.3.2 2h5.3l.3 1.4-5.2 1.6.5 2 5.3-1 .4 1.4L2 43.4l.8 1.8 5.1-1.7.6 1.2L4.2 48l1 1.7L10 47l.8 1.1L7 52l1.3 1.5 4.3-3.1 1 1-3.1 4.3L12 57l3.8-3.8 1 .8-2.4 4.8 1.7 1 3.2-4.3 1.2.6-1.6 5.1 1.8.8 2.4-4.8 1.3.4-.8 5.3 1.9.5 1.6-5.2 1.4.3v5.3l2 .2.8-5.3h1.4l.8 5.3c.7 0 1.3 0 2-.2v-5.3c.5 0 1-.2 1.4-.3l1.6 5.2 2-.5-1-5.3 1.4-.4 2.5 4.8a31 31 0 001.8-.8l-1.7-5.1 1.3-.6 3.1 4.3 1.7-1L47 54l1.2-.8L52 57l1.4-1.3-3.1-4.3 1-1 4.3 3.1c.5-.4.9-1 1.3-1.5l-3.8-3.8.8-1 4.8 2.4 1-1.7-4.3-3.2.6-1.2 5.1 1.7.8-1.8-4.8-2.5.4-1.3 5.3.8.5-1.9-5.1-1.6.2-1.4h5.4l.1-2-5.3-.8v-1.4zM27.4 9.9a29.8 29.8 0 019.2 0 3.4 3.4 0 012.7 4.5 62.6 62.6 0 01-4.6 9.6c-1.3 2.4-4 2.4-5.4 0a62.4 62.4 0 01-4.6-9.6 3.4 3.4 0 012.7-4.5zM35.1 32a3.1 3.1 0 11-3-3.1 3.1 3.1 0 013 3.1zm-24.5-7.1a30 30 0 014.5-8 3.4 3.4 0 015.3 0 62.7 62.7 0 016 8.8c1.5 2.3 0 4.7-2.7 4.7a62.8 62.8 0 01-10.6-.9 3.4 3.4 0 01-2.5-4.6zm9.8 22.2a3.4 3.4 0 01-5.3 0 29.9 29.9 0 01-4.5-8 3.4 3.4 0 012.5-4.6 62.6 62.6 0 0110.6-.9c2.8 0 4.2 2.4 2.8 4.7a62.6 62.6 0 01-6 8.8zm16.2 7a30 30 0 01-9.2 0 3.4 3.4 0 01-2.7-4.5 62.4 62.4 0 014.6-9.6c1.3-2.4 4-2.4 5.4 0a62.6 62.6 0 014.6 9.6 3.4 3.4 0 01-2.7 4.5zm16.8-15a29.9 29.9 0 01-4.5 8 3.4 3.4 0 01-5.3 0 62.4 62.4 0 01-6-8.8c-1.4-2.3 0-4.7 2.7-4.7a62.6 62.6 0 0110.6.9 3.4 3.4 0 012.6 4.6zM51 29.5a62.8 62.8 0 01-10.6.9c-2.8 0-4.1-2.4-2.8-4.7a62.6 62.6 0 016-8.8 3.4 3.4 0 015.4 0 30 30 0 014.5 8 3.4 3.4 0 01-2.5 4.6z"/>
</svg>